<?xml version="1.0" standalone="no"?>
<!DOCTYPE svg PUBLIC "-//W3C//DTD SVG 20010904//EN"
 "http://www.w3.org/TR/2001/REC-SVG-20010904/DTD/svg10.dtd">
<svg version="1.0" xmlns="http://www.w3.org/2000/svg"
 width="450.000000pt" height="365.000000pt" viewBox="0 0 450.000000 365.000000"
 preserveAspectRatio="xMidYMid meet">

<g transform="translate(0.000000,365.000000) scale(0.100000,-0.100000)"
fill="#000000" stroke="none">
<path d="M1360 3430 l0 -210 70 0 70 0 0 70 0 70 60 0 60 0 0 -70 0 -71 73 3
72 3 3 208 2 207 -75 0 -75 0 0 -70 0 -70 -60 0 -60 0 0 70 0 70 -70 0 -70 0
0 -210z"/>
<path d="M1820 3570 l0 -70 65 0 65 0 0 -140 0 -140 70 0 70 0 0 140 0 140 60
0 60 0 0 70 0 70 -195 0 -195 0 0 -70z"/>
<path d="M2270 3430 l0 -210 70 0 69 0 3 97 3 97 44 -67 c24 -38 47 -64 51
-60 5 4 26 37 49 72 l41 64 0 -101 0 -102 70 0 70 0 0 210 0 210 -74 0 -74 0
-41 -70 c-23 -38 -43 -70 -45 -70 -2 0 -22 32 -45 70 l-42 70 -74 0 -75 0 0
-210z"/>
<path d="M2810 3430 l0 -210 170 0 170 0 0 70 0 70 -100 0 -100 0 0 140 0 140
-70 0 -70 0 0 -210z"/>
<path d="M1160 3008 c0 -13 7 -95 15 -183 8 -88 15 -170 15 -182 l0 -23 -575
0 -575 0 0 -22 c0 -23 121 -1402 124 -1405 4 -5 555 -155 571 -155 11 0 143
34 292 76 150 42 275 76 278 76 3 0 5 8 5 17 0 9 2 14 4 12 3 -2 13 -98 22
-213 17 -190 20 -209 39 -217 11 -5 213 -63 448 -128 l428 -119 102 29 c56 16
251 70 432 120 182 50 337 95 345 99 12 7 19 51 32 202 10 106 54 600 98 1098
44 497 80 913 80 922 0 17 -53 18 -1090 18 l-1090 0 0 -22z m1980 -183 c0 -11
-16 -195 -35 -410 -19 -214 -42 -469 -50 -565 -67 -756 -82 -910 -87 -915 -3
-3 -29 -12 -59 -20 -30 -8 -190 -52 -356 -98 l-303 -84 0 133 0 132 73 20 c39
11 164 46 277 77 113 31 210 61 216 66 15 12 19 46 69 644 9 99 18 186 21 194
2 8 -1 18 -8 23 -7 4 -156 8 -330 8 l-318 0 0 125 0 125 337 2 337 3 7 35 c4
19 9 87 11 150 l3 115 -347 3 -348 2 0 128 0 127 445 0 c438 0 445 0 445 -20z
m-203 -307 c-4 -35 -10 -100 -13 -146 l-7 -82 -525 2 -524 3 6 -90 c4 -49 10
-111 13 -137 l6 -48 498 0 c469 0 499 -1 499 -17 0 -10 -13 -164 -29 -343 -17
-179 -33 -362 -37 -407 l-7 -83 -66 -19 c-36 -11 -164 -47 -284 -80 l-217 -60
-281 78 c-154 43 -282 80 -284 82 -2 2 -10 92 -19 199 -9 107 -19 205 -21 218
l-5 22 144 0 144 0 7 -97 c4 -54 8 -105 11 -113 2 -10 52 -28 146 -53 79 -20
149 -37 157 -37 20 0 285 72 294 80 6 5 37 285 37 338 0 9 -101 12 -474 12
l-473 0 -12 123 c-23 246 -61 678 -61 697 0 20 12 20 691 20 l692 0 -6 -62z
m-1729 -130 c6 -68 19 -215 28 -328 l17 -205 -26 -284 c-14 -156 -27 -285 -29
-286 -4 -4 -440 -125 -450 -125 -5 0 -8 42 -8 93 l0 92 -182 51 -183 50 -11
115 c-7 63 -12 126 -13 142 l-1 27 89 0 90 0 7 -71 c4 -39 12 -73 18 -75 6 -2
50 -15 99 -28 l87 -24 0 139 0 139 -99 0 -98 0 -7 53 c-3 28 -6 69 -6 90 l0
37 105 0 105 0 0 90 0 90 -214 0 -214 0 -6 48 c-3 26 -7 65 -8 87 l-3 40 223
3 222 2 0 80 0 80 228 0 229 0 11 -122z m1357 -705 c-7 -50 -25 -240 -25 -263
0 -20 -28 -31 -179 -70 -46 -12 -90 -24 -98 -27 -11 -4 -13 32 -13 196 l0 201
160 0 160 0 -5 -37z"/>
<path d="M330 2885 l0 -135 111 0 110 0 -3 38 -3 37 -62 3 -63 3 0 54 0 55 65
0 65 0 0 40 0 40 -110 0 -110 0 0 -135z"/>
<path d="M597 3013 c-20 -20 -3 -59 53 -121 l60 -67 -60 -3 -60 -3 0 -34 0
-35 130 0 130 0 0 29 c0 21 -16 46 -61 95 l-61 66 56 0 56 0 0 40 0 40 -118 0
c-65 0 -122 -3 -125 -7z"/>
<path d="M890 2986 c0 -28 10 -46 55 -94 30 -33 55 -62 55 -66 0 -3 -25 -6
-55 -6 l-55 0 0 -35 0 -35 125 0 125 0 0 31 c0 24 -13 45 -57 93 l-57 61 58 3
57 3 -3 37 -3 37 -122 3 -123 3 0 -35z"/>
<path d="M3620 2930 l0 -89 -62 -3 -63 -3 -3 -42 -3 -43 110 0 111 0 0 135 0
135 -45 0 -45 0 0 -90z"/>
<path d="M3760 2981 c0 -22 14 -45 55 -89 30 -33 55 -62 55 -66 0 -3 -25 -6
-55 -6 l-55 0 0 -35 0 -35 120 0 120 0 0 31 c0 23 -13 46 -55 92 -30 34 -55
65 -55 70 0 4 25 7 55 7 54 0 55 0 55 30 l0 30 -120 0 -120 0 0 -29z"/>
</g>
</svg>
